<?xml version="1.0" encoding="UTF-8" standalone="no"?>
<!-- Created with Inkscape (http://www.inkscape.org/) -->

<svg
   xmlns:dc="http://purl.org/dc/elements/1.1/"
   xmlns:cc="http://creativecommons.org/ns#"
   xmlns:rdf="http://www.w3.org/1999/02/22-rdf-syntax-ns#"
   xmlns:svg="http://www.w3.org/2000/svg"
   xmlns="http://www.w3.org/2000/svg"
   xmlns:xlink="http://www.w3.org/1999/xlink"
   xmlns:sodipodi="http://sodipodi.sourceforge.net/DTD/sodipodi-0.dtd"
   xmlns:inkscape="http://www.inkscape.org/namespaces/inkscape"
   width="64"
   height="64"
   id="svg2"
   version="1.1"
   inkscape:version="0.91 r13725"
   sodipodi:docname="sheepLaser.svg"
   inkscape:export-filename="C:\Java\SheepsGoHome\android\assets\sheepLaser.png"
   inkscape:export-xdpi="90"
   inkscape:export-ydpi="90">
  <defs
     id="defs4">
    <linearGradient
       inkscape:collect="always"
       id="linearGradient3755">
      <stop
         style="stop-color:#d8d8d8;stop-opacity:1"
         offset="0"
         id="stop3757" />
      <stop
         style="stop-color:#f1f1f1;stop-opacity:1"
         offset="1"
         id="stop3759" />
    </linearGradient>
    <linearGradient
       inkscape:collect="always"
       xlink:href="#linearGradient3755"
       id="linearGradient3761"
       x1="10.101525"
       y1="1031.2753"
       x2="20.581858"
       y2="1043.2709"
       gradientUnits="userSpaceOnUse"
       gradientTransform="matrix(0,0.92899861,-0.92899861,0,978.13341,1022.9526)" />
  </defs>
  <sodipodi:namedview
     id="base"
     pagecolor="#ffffff"
     bordercolor="#666666"
     borderopacity="1.0"
     inkscape:pageopacity="0.0"
     inkscape:pageshadow="2"
     inkscape:zoom="5.6"
     inkscape:cx="-46.306191"
     inkscape:cy="34.95546"
     inkscape:document-units="px"
     inkscape:current-layer="layer1"
     showgrid="false"
     inkscape:window-width="1920"
     inkscape:window-height="1018"
     inkscape:window-x="-8"
     inkscape:window-y="-8"
     inkscape:window-maximized="1" />
  <metadata
     id="metadata7">
    <rdf:RDF>
      <cc:Work
         rdf:about="">
        <dc:format>image/svg+xml</dc:format>
        <dc:type
           rdf:resource="http://purl.org/dc/dcmitype/StillImage" />
        <dc:title></dc:title>
      </cc:Work>
    </rdf:RDF>
  </metadata>
  <g
     inkscape:label="Layer 1"
     inkscape:groupmode="layer"
     id="layer1"
     transform="translate(0,-988.3622)">
    <g
       id="g4173"
       transform="matrix(1.1564715,0,0,1.1564715,-4.3354519,-160.73017)">
      <g
         transform="matrix(0,1.0442497,-1.0442497,0,1087.3809,1077.4754)"
         id="g4149">
        <path
           style="fill:#1d304b;fill-opacity:1;fill-rule:evenodd;stroke:#000000;stroke-width:2;stroke-linecap:butt;stroke-linejoin:miter;stroke-miterlimit:4;stroke-dasharray:none;stroke-opacity:1"
           d="m -61.745574,1035.4421 c -0.607102,-0.613 -0.0045,-1.7255 -0.0068,-2.5883 -0.01272,-4.8326 -0.74422,-11.4643 -0.761161,-17.9016 -0.01929,-7.3301 0.50732,-13.9536 0.704893,-18.30535 0.119302,-2.62775 -0.05156,-4.76758 -0.05156,-4.76758 0.986728,-0.41897 1.053008,-1.60853 1.251061,-2.77789 l 10.73287,-0.25254 c 0.238101,1.29953 -0.590829,2.58897 2.118044,3.4091 0,0 0.335367,2.36035 0.279835,5.46017 -0.03657,2.04153 -0.556146,9.96389 -0.556146,9.96389 -0.08974,5.0096 2.638231,8.3224 3.794255,8.8915 1.187204,0.5843 2.491943,0.731 3.076577,2.4536 0.384448,1.1327 -0.185992,1.8366 0.115898,4.4246 0.299069,2.5638 1.08857,5.8667 0.558377,8.5014 -0.257557,1.2799 -0.0548,2.9581 -0.800545,3.7415 -1.489662,1.5649 -2.862099,0.4097 -6.471163,0.368 -3.338439,-0.038 -7.316022,-0.5269 -10.258635,-0.5632 -0.694764,-0.01 -3.236871,0.4364 -3.725789,-0.057 z"
           id="path4145"
           inkscape:connector-curvature="0"
           sodipodi:nodetypes="csssccccssssssssssc" />
        <path
           style="fill:#000000;fill-opacity:1;fill-rule:evenodd;stroke:#000000;stroke-width:1px;stroke-linecap:butt;stroke-linejoin:miter;stroke-opacity:1"
           d="m -60.577585,988.84883 0.03157,-2.84105 c 1.726781,-0.66337 8.164903,-0.48831 10.417198,-0.25253 l 0.252538,3.21986 c -1.53089,0.23671 -8.961431,0.83004 -10.701305,-0.12628 z"
           id="path4147"
           inkscape:connector-curvature="0"
           sodipodi:nodetypes="ccccc" />
      </g>
      <path
         sodipodi:nodetypes="sssss"
         inkscape:connector-curvature="0"
         id="path4153"
         d="m 13.703312,1017.717 c 1.974592,0.062 4.951368,1.0708 4.900967,4.1586 -0.07651,4.6646 -3.689699,5.7492 -6.311842,4.9752 -2.286143,-0.6747 -2.4617955,-2.2945 -2.4504844,-4.6783 0.01663,-2.6469 2.5437984,-4.4967 3.8613594,-4.4555 z"
         style="fill:#3684fc;fill-opacity:1;fill-rule:evenodd;stroke:#000000;stroke-width:1.63199997;stroke-linecap:butt;stroke-linejoin:miter;stroke-miterlimit:4;stroke-dasharray:none;stroke-opacity:1" />
    </g>
  </g>
</svg>
