<?xml version="1.0" encoding="UTF-8" standalone="no"?>
<!-- Created with Inkscape (http://www.inkscape.org/) -->

<svg
   xmlns:dc="http://purl.org/dc/elements/1.1/"
   xmlns:cc="http://creativecommons.org/ns#"
   xmlns:rdf="http://www.w3.org/1999/02/22-rdf-syntax-ns#"
   xmlns:svg="http://www.w3.org/2000/svg"
   xmlns="http://www.w3.org/2000/svg"
   xmlns:xlink="http://www.w3.org/1999/xlink"
   xmlns:sodipodi="http://sodipodi.sourceforge.net/DTD/sodipodi-0.dtd"
   xmlns:inkscape="http://www.inkscape.org/namespaces/inkscape"
   width="90"
   height="160"
   id="svg2"
   version="1.1"
   inkscape:version="0.48.5 r10040"
   sodipodi:docname="wolf_alpha_fail.svg"
   inkscape:export-filename="C:\Users\LittleLight\AndroidStudioProjects\SheepsGoHome\graphics\wolf_alpha_fail.png"
   inkscape:export-xdpi="720.58453"
   inkscape:export-ydpi="720.58453">
  <defs
     id="defs4">
    <linearGradient
       id="linearGradient3790"
       inkscape:collect="always">
      <stop
         id="stop3792"
         offset="0"
         style="stop-color:#181818;stop-opacity:1" />
      <stop
         id="stop3794"
         offset="1"
         style="stop-color:#292929;stop-opacity:1" />
    </linearGradient>
    <linearGradient
       inkscape:collect="always"
       id="linearGradient3849">
      <stop
         style="stop-color:#784421;stop-opacity:1;"
         offset="0"
         id="stop3851" />
      <stop
         style="stop-color:#955429;stop-opacity:1"
         offset="1"
         id="stop3853" />
    </linearGradient>
    <linearGradient
       inkscape:collect="always"
       xlink:href="#linearGradient3849"
       id="linearGradient3947"
       gradientUnits="userSpaceOnUse"
       x1="-61.623524"
       y1="990.08618"
       x2="-69.664093"
       y2="962.56818" />
    <linearGradient
       inkscape:collect="always"
       xlink:href="#linearGradient3790"
       id="linearGradient3815"
       gradientUnits="userSpaceOnUse"
       gradientTransform="matrix(0.7915447,0,0,0.7915447,91.826586,194.37233)"
       x1="-61.623524"
       y1="990.08618"
       x2="-69.664093"
       y2="962.56818" />
    <radialGradient
       inkscape:collect="always"
       xlink:href="#linearGradient6377"
       id="radialGradient6387"
       gradientUnits="userSpaceOnUse"
       gradientTransform="matrix(0.41442875,0,0,0.41442875,87.474759,650.7107)"
       cx="100"
       cy="952.36218"
       fx="100"
       fy="952.36218"
       r="100" />
    <linearGradient
       id="linearGradient6377"
       inkscape:collect="always">
      <stop
         id="stop6379"
         offset="0"
         style="stop-color:#e5e5e5;stop-opacity:0" />
      <stop
         style="stop-color:#dddddd;stop-opacity:0"
         offset="0.77142859"
         id="stop6381" />
      <stop
         style="stop-color:#bbbbbb;stop-opacity:0"
         offset="0.97828025"
         id="stop6383" />
      <stop
         id="stop6385"
         offset="1"
         style="stop-color:#a38d5d;stop-opacity:1" />
    </linearGradient>
    <linearGradient
       y2="1036.4607"
       x2="42.582077"
       y1="1005.2999"
       x1="22.422472"
       gradientTransform="matrix(-0.27018809,3.1908791,-3.1908791,-0.27018809,3366.0043,1164.8923)"
       gradientUnits="userSpaceOnUse"
       id="linearGradient5038"
       xlink:href="#linearGradient3764-5"
       inkscape:collect="always" />
    <linearGradient
       inkscape:collect="always"
       id="linearGradient3764-5">
      <stop
         style="stop-color:#141414;stop-opacity:1"
         offset="0"
         id="stop3766-5" />
      <stop
         style="stop-color:#272727;stop-opacity:1"
         offset="1"
         id="stop3768-1" />
    </linearGradient>
    <clipPath
       clipPathUnits="userSpaceOnUse"
       id="clipPath5059">
      <rect
         clip-path="none"
         style="fill:url(#radialGradient5063);fill-opacity:1;stroke:none"
         id="rect5061"
         width="158.57143"
         height="158.57143"
         x="20.714287"
         y="873.07648"
         rx="79.285713"
         ry="79.285713" />
    </clipPath>
    <radialGradient
       inkscape:collect="always"
       xlink:href="#linearGradient4872"
       id="radialGradient3771"
       gradientUnits="userSpaceOnUse"
       cx="100"
       cy="952.36218"
       fx="100"
       fy="952.36218"
       r="100"
       gradientTransform="matrix(0.41442875,0,0,0.41442875,155.88734,602.62744)" />
    <linearGradient
       inkscape:collect="always"
       id="linearGradient4872">
      <stop
         style="stop-color:#e5e5e5;stop-opacity:1"
         offset="0"
         id="stop4874" />
      <stop
         id="stop4876"
         offset="0.77142859"
         style="stop-color:#dddddd;stop-opacity:1" />
      <stop
         id="stop4878"
         offset="0.9464286"
         style="stop-color:#bbbbbb;stop-opacity:1" />
      <stop
         style="stop-color:#a38d5d;stop-opacity:1"
         offset="1"
         id="stop4880" />
    </linearGradient>
    <radialGradient
       inkscape:collect="always"
       xlink:href="#linearGradient3755"
       id="radialGradient3761"
       cx="100"
       cy="952.36218"
       fx="100"
       fy="952.36218"
       r="100"
       gradientUnits="userSpaceOnUse" />
    <linearGradient
       inkscape:collect="always"
       id="linearGradient3755">
      <stop
         style="stop-color:#d2b679;stop-opacity:1"
         offset="0"
         id="stop3757" />
      <stop
         id="stop3765"
         offset="0.77142859"
         style="stop-color:#c8a55b;stop-opacity:1" />
      <stop
         id="stop3763"
         offset="0.9464286"
         style="stop-color:#d7be87;stop-opacity:1" />
      <stop
         style="stop-color:#9a7a34;stop-opacity:1"
         offset="1"
         id="stop3759" />
    </linearGradient>
    <radialGradient
       gradientTransform="matrix(0.52270292,0,0,0.52270292,145.05992,499.5112)"
       r="100"
       fy="952.36218"
       fx="100"
       cy="952.36218"
       cx="100"
       gradientUnits="userSpaceOnUse"
       id="radialGradient4098"
       xlink:href="#linearGradient3755"
       inkscape:collect="always" />
  </defs>
  <sodipodi:namedview
     id="base"
     pagecolor="#ffffff"
     bordercolor="#666666"
     borderopacity="1.0"
     inkscape:pageopacity="0.0"
     inkscape:pageshadow="2"
     inkscape:zoom="2"
     inkscape:cx="116.11653"
     inkscape:cy="54.077714"
     inkscape:document-units="px"
     inkscape:current-layer="layer1"
     showgrid="false"
     inkscape:window-width="1680"
     inkscape:window-height="988"
     inkscape:window-x="-8"
     inkscape:window-y="-8"
     inkscape:window-maximized="1" />
  <metadata
     id="metadata7">
    <rdf:RDF>
      <cc:Work
         rdf:about="">
        <dc:format>image/svg+xml</dc:format>
        <dc:type
           rdf:resource="http://purl.org/dc/dcmitype/StillImage" />
        <dc:title />
      </cc:Work>
    </rdf:RDF>
  </metadata>
  <g
     inkscape:label="Layer 1"
     inkscape:groupmode="layer"
     id="layer1"
     transform="translate(0,-892.36218)">
    <g
       transform="matrix(0.42838387,0.46394249,-0.46394249,0.42838387,522.84324,585.21002)"
       id="g3895">
      <path
         style="fill:#181818;fill-opacity:1;stroke:#000000;stroke-width:0.80000001;stroke-linecap:butt;stroke-linejoin:miter;stroke-miterlimit:4;stroke-opacity:1;stroke-dasharray:none"
         d="m -78.981302,94.403219 c 0.336426,-1.527784 2.510481,-1.257319 3.472399,-0.252538 0.897471,2.10474 1.73033,4.079504 2.977568,6.111889 0.243689,0.39709 0.530229,0.5156 0.731587,1.1328 0.194718,0.59685 -0.195906,1.02198 -0.218029,1.77763 -0.05306,1.81217 -0.446415,4.33367 -0.713206,6.57191 0,0 3.979441,-0.89508 5.871511,-0.37881 1.841393,0.50244 4.639984,1.31352 4.73509,3.21986 0.125803,2.52163 -3.337735,4.34138 -5.808377,4.86136 -3.44121,0.72425 -8.120968,0.0338 -9.375478,-3.25142 -0.615549,-1.61196 1.988738,-4.07218 1.988738,-4.07218 -0.111807,-2.75281 0.116742,-5.55889 0.662913,-8.17592 -1.814733,-2.057522 -2.956804,-5.040241 -4.324716,-7.544581 z"
         id="path3897"
         inkscape:connector-curvature="0"
         transform="translate(0,892.36218)"
         sodipodi:nodetypes="ccssscssssccc" />
      <path
         style="fill:none;stroke:#000000;stroke-width:0.80000001;stroke-linecap:butt;stroke-linejoin:miter;stroke-miterlimit:4;stroke-opacity:1;stroke-dasharray:none"
         d="m -64.598214,116.29464 c -0.867542,-0.81423 -2.093924,-1.50712 -3.794643,-1.96428"
         id="path3899"
         inkscape:connector-curvature="0"
         transform="translate(0,892.36218)"
         sodipodi:nodetypes="cc" />
      <path
         style="fill:none;stroke:#000000;stroke-width:0.80000001;stroke-linecap:butt;stroke-linejoin:miter;stroke-miterlimit:4;stroke-opacity:1;stroke-dasharray:none"
         d="m -62.544643,113.88393 c -1.517816,-1.51408 -2.98335,-1.5631 -4.508928,-1.83036"
         id="path3901"
         inkscape:connector-curvature="0"
         transform="translate(0,892.36218)"
         sodipodi:nodetypes="cc" />
    </g>
    <g
       id="g3903"
       transform="matrix(0.63147081,0,0,0.63147081,98.837655,350.07847)">
      <path
         sodipodi:nodetypes="ccssscssssccc"
         transform="translate(0,892.36218)"
         inkscape:connector-curvature="0"
         id="path3905"
         d="m -78.981302,94.403219 c 0.336426,-1.527784 2.510481,-1.257319 3.472399,-0.252538 0.897471,2.10474 1.73033,4.079504 2.977568,6.111889 0.243689,0.39709 0.530229,0.5156 0.731587,1.1328 0.194718,0.59685 -0.195906,1.02198 -0.218029,1.77763 -0.05306,1.81217 -0.446415,4.33367 -0.713206,6.57191 0,0 3.979441,-0.89508 5.871511,-0.37881 1.841393,0.50244 4.639984,1.31352 4.73509,3.21986 0.125803,2.52163 -3.337735,4.34138 -5.808377,4.86136 -3.44121,0.72425 -8.120968,0.0338 -9.375478,-3.25142 -0.615549,-1.61196 1.988738,-4.07218 1.988738,-4.07218 -0.111807,-2.75281 0.116742,-5.55889 0.662913,-8.17592 -1.814733,-2.057522 -2.956804,-5.040241 -4.324716,-7.544581 z"
         style="fill:#181818;fill-opacity:1;stroke:#000000;stroke-width:0.80000001;stroke-linecap:butt;stroke-linejoin:miter;stroke-miterlimit:4;stroke-opacity:1;stroke-dasharray:none" />
      <path
         sodipodi:nodetypes="cc"
         transform="translate(0,892.36218)"
         inkscape:connector-curvature="0"
         id="path3907"
         d="m -64.598214,116.29464 c -0.867542,-0.81423 -2.093924,-1.50712 -3.794643,-1.96428"
         style="fill:none;stroke:#000000;stroke-width:0.80000001;stroke-linecap:butt;stroke-linejoin:miter;stroke-miterlimit:4;stroke-opacity:1;stroke-dasharray:none" />
      <path
         sodipodi:nodetypes="cc"
         transform="translate(0,892.36218)"
         inkscape:connector-curvature="0"
         id="path3909"
         d="m -62.544643,113.88393 c -1.517816,-1.51408 -2.98335,-1.5631 -4.508928,-1.83036"
         style="fill:none;stroke:#000000;stroke-width:0.80000001;stroke-linecap:butt;stroke-linejoin:miter;stroke-miterlimit:4;stroke-opacity:1;stroke-dasharray:none" />
    </g>
    <path
       style="fill:#181818;fill-opacity:1;stroke:#000000;stroke-width:0.79154468px;stroke-linecap:butt;stroke-linejoin:miter;stroke-opacity:1"
       d="m 21.291914,962.58776 c -3.394279,-0.0876 -6.546254,0.0568 -9.039237,-1.65769 -0.261606,-5.06733 -5.893888,-8.40558 -9.9867657,-9.20603 3.3983644,-1.55512 7.1649067,-4.61867 7.8598117,-9.11724 2.678896,3.50755 5.483849,6.91688 4.998009,13.90735 1.839626,2.09665 4.390621,3.14555 7.237297,2.91427 z"
       id="path3874"
       inkscape:connector-curvature="0"
       sodipodi:nodetypes="ccccccc" />
    <path
       style="fill:url(#linearGradient3815);fill-opacity:1;stroke:#000000;stroke-width:0.79154468;stroke-miterlimit:4;stroke-opacity:1;stroke-dasharray:none;stroke-dashoffset:0"
       d="m 27.163192,948.20725 c 7.131025,-5.03434 21.614568,-3.96364 26.755942,-0.26544 4.549423,3.27241 11.051469,10.63642 11.051469,17.37077 0,6.73435 -10.309698,13.45547 -15.583639,14.40587 -8.323244,1.4999 -13.576915,0.0995 -21.532139,-2.09809 -5.165432,-1.42689 -9.104778,-5.57343 -9.104778,-12.30778 0,-6.73435 4.035297,-14.01467 8.413145,-17.10533 z"
       id="rect3011"
       inkscape:connector-curvature="0"
       sodipodi:nodetypes="sssssss" />
    <g
       id="g3882"
       transform="matrix(0.7915447,0,0,0.7915447,89.211661,192.88818)">
      <path
         sodipodi:nodetypes="ccssscssssccc"
         inkscape:connector-curvature="0"
         id="path3876"
         d="m -77.513382,987.27864 c -0.199288,-2.81847 4.010556,-3.17833 4.814555,-1.54187 0.897471,2.10474 0.90141,4.34236 2.148648,6.37474 0.243689,0.39709 0.806588,0.83144 1.007946,1.44864 0.194718,0.59685 -0.432785,1.41678 -0.454908,2.17243 -0.05306,1.81217 -1.078091,4.13627 -1.344882,6.37452 0,0 3.979441,-0.8951 5.871511,-0.3788 1.841393,0.5024 4.639984,1.3135 4.73509,3.2198 0.125803,2.5217 -3.337735,4.3414 -5.808377,4.8614 -3.44121,0.7243 -8.120968,0.034 -9.375478,-3.2514 -0.615549,-1.612 1.988738,-4.0722 1.988738,-4.0722 -0.111807,-2.75281 -0.396495,-5.40097 0.149676,-8.018 -1.814733,-2.05752 -2.364607,-4.68492 -3.732519,-7.18926 z"
         style="fill:#181818;fill-opacity:1;stroke:#000000;stroke-width:0.80000001;stroke-linecap:butt;stroke-linejoin:miter;stroke-miterlimit:4;stroke-opacity:1;stroke-dasharray:none" />
      <path
         sodipodi:nodetypes="cc"
         transform="translate(0,892.36218)"
         inkscape:connector-curvature="0"
         id="path3878"
         d="m -64.598214,116.29464 c -0.867542,-0.81423 -2.093924,-1.50712 -3.794643,-1.96428"
         style="fill:none;stroke:#000000;stroke-width:0.80000001;stroke-linecap:butt;stroke-linejoin:miter;stroke-miterlimit:4;stroke-opacity:1;stroke-dasharray:none" />
      <path
         sodipodi:nodetypes="cc"
         transform="translate(0,892.36218)"
         inkscape:connector-curvature="0"
         id="path3880"
         d="m -62.544643,113.88393 c -1.517816,-1.51408 -2.98335,-1.5631 -4.508928,-1.83036"
         style="fill:none;stroke:#000000;stroke-width:0.80000001;stroke-linecap:butt;stroke-linejoin:miter;stroke-miterlimit:4;stroke-opacity:1;stroke-dasharray:none" />
    </g>
    <g
       transform="matrix(0.68993517,0.38798516,-0.38798516,0.68993517,490.19585,322.91337)"
       id="g3887">
      <path
         style="fill:#181818;fill-opacity:1;stroke:#000000;stroke-width:0.80000001;stroke-linecap:butt;stroke-linejoin:miter;stroke-miterlimit:4;stroke-opacity:1;stroke-dasharray:none"
         d="m -81.136289,95.162135 c -0.718504,-2.581978 5.16222,-4.588677 5.879214,-2.356683 0.897471,2.10474 1.478502,5.424733 2.72574,7.457118 0.243689,0.39709 0.530229,0.5156 0.731587,1.1328 0.194718,0.59685 -0.195906,1.02198 -0.218029,1.77763 -0.05306,1.81217 -0.446415,4.33367 -0.713206,6.57191 0,0 3.979441,-0.89508 5.871511,-0.37881 1.841393,0.50244 4.639984,1.31352 4.73509,3.21986 0.125803,2.52163 -3.337735,4.34138 -5.808377,4.86136 -3.44121,0.72425 -8.120968,0.0338 -9.375478,-3.25142 -0.615549,-1.61196 1.988738,-4.07218 1.988738,-4.07218 -0.111807,-2.75281 -0.950024,-4.95899 -0.403853,-7.57602 -1.814733,-2.05753 -4.045025,-4.881225 -5.412937,-7.385565 z"
         id="path3889"
         inkscape:connector-curvature="0"
         transform="translate(0,892.36218)"
         sodipodi:nodetypes="ccssscssssccc" />
      <path
         style="fill:none;stroke:#000000;stroke-width:0.80000001;stroke-linecap:butt;stroke-linejoin:miter;stroke-miterlimit:4;stroke-opacity:1;stroke-dasharray:none"
         d="m -64.598214,116.29464 c -0.867542,-0.81423 -2.093924,-1.50712 -3.794643,-1.96428"
         id="path3891"
         inkscape:connector-curvature="0"
         transform="translate(0,892.36218)"
         sodipodi:nodetypes="cc" />
      <path
         style="fill:none;stroke:#000000;stroke-width:0.80000001;stroke-linecap:butt;stroke-linejoin:miter;stroke-miterlimit:4;stroke-opacity:1;stroke-dasharray:none"
         d="m -62.544643,113.88393 c -1.517816,-1.51408 -2.98335,-1.5631 -4.508928,-1.83036"
         id="path3893"
         inkscape:connector-curvature="0"
         transform="translate(0,892.36218)"
         sodipodi:nodetypes="cc" />
    </g>
    <g
       id="g4202"
       transform="matrix(0.99433251,0.1063149,-0.1063149,0.99433251,102.09065,-1.0768318)">
      <g
         transform="matrix(0.7915447,0,0,0.7915447,90.407931,195.22588)"
         id="g3857">
        <path
           style="fill:#181818;fill-opacity:1;stroke:#000000;stroke-width:0.83745277px;stroke-linecap:butt;stroke-linejoin:miter;stroke-opacity:1"
           d="m -29.362451,956.56468 c 0.200611,-3.48918 -1.14324,-6.02234 -1.504052,-8.49814 -2.033336,1.71849 -3.16028,4.09098 -3.348386,7.79664 z"
           id="path3843"
           inkscape:connector-curvature="0"
           sodipodi:nodetypes="cccc" />
        <path
           style="fill:#181818;fill-opacity:1;stroke:#000000;stroke-width:1;stroke-linecap:butt;stroke-linejoin:miter;stroke-miterlimit:4;stroke-opacity:1;stroke-dasharray:none"
           d="m -45.29938,57.600798 c 0.198538,1.377238 -1.285591,5.208005 1.988907,8.841342 0,0 -0.433352,0.361372 -0.752027,0.83911 -2.140828,3.2094 -2.778505,8.34079 -0.65625,11.5625 2.172451,3.29791 3.923827,6.009032 7.72974,7.062962 7.280522,2.01613 12.105886,5.370716 18.976571,2.229946 1.947348,-0.89018 3.535364,-3.07583 4.15625,-5.125 0.95352,-3.14699 1.97076,-7.91493 -0.3125,-10.28125 -5.251801,-0.86071 -4.726952,-0.853085 -10.425061,-0.949158 -0.726856,-3.05408 -2.260746,-7.44337 -4.90625,-8.125 -3.030198,-0.78076 -5.713119,0.06801 -8.34375,0.625 -0.481242,0.101892 -1.010792,-0.368096 -1.5,-0.661241 -2.256924,-3.729293 -4.85941,-4.571267 -5.95563,-6.019211 z"
           transform="translate(0,892.36218)"
           id="path3014"
           inkscape:connector-curvature="0"
           sodipodi:nodetypes="ccsssssccsscc" />
        <path
           style="fill:#ececec;fill-opacity:1;stroke:#000000;stroke-width:0.87423992;stroke-linecap:butt;stroke-linejoin:miter;stroke-miterlimit:4;stroke-opacity:1;stroke-dasharray:none"
           d="m -27.039576,79.031556 c 6.534575,0.164092 6.958214,1.347532 13.959257,0.52038 -0.106977,3.649422 -1.355754,6.975121 -4.845038,8.395902 -4.320177,-0.708453 -9.740329,-3.708575 -12.223487,-5.852445 0.884784,-0.757648 2.516914,-1.790982 3.109268,-3.063837 z"
           id="path3784"
           inkscape:connector-curvature="0"
           transform="translate(0,892.36218)"
           sodipodi:nodetypes="ccccc" />
        <path
           style="fill:none;stroke:#000000;stroke-width:0.74790472;stroke-linecap:butt;stroke-linejoin:miter;stroke-miterlimit:4;stroke-opacity:1;stroke-dasharray:none"
           d="m -28.38855,80.90676 2.183251,0.03546 1.035287,1.867214 2.923054,-1.072115 1.783411,2.539362 3.336326,-1.536198 2.341287,2.665305"
           id="path3786"
           inkscape:connector-curvature="0"
           transform="translate(0,892.36218)"
           sodipodi:nodetypes="ccccccc" />
        <path
           style="fill:none;stroke:#000000;stroke-width:1px;stroke-linecap:butt;stroke-linejoin:miter;stroke-opacity:1"
           d="m -41.275318,961.09404 c 1.960475,-0.25251 5.639325,0.59654 6.918502,1.62772"
           id="path3834"
           inkscape:connector-curvature="0"
           sodipodi:nodetypes="cc" />
        <path
           style="fill:none;stroke:#000000;stroke-width:0.80000001;stroke-linecap:butt;stroke-linejoin:miter;stroke-miterlimit:4;stroke-opacity:1;stroke-dasharray:none"
           d="m -32.372966,961.85267 c 0.496582,-1.16496 3.079886,-2.37353 3.973158,-2.52911"
           id="path3836"
           inkscape:connector-curvature="0"
           sodipodi:nodetypes="cc" />
        <path
           style="fill:#222121;fill-opacity:1;stroke:#000000;stroke-width:0.41237393;stroke-linecap:butt;stroke-linejoin:miter;stroke-miterlimit:4;stroke-opacity:1;stroke-dasharray:none"
           d="m -14.501029,965.41097 c -1.360891,-0.32128 -1.953677,-0.51238 -2.810929,-0.61652 -0.981404,2.59809 0.88728,3.49089 3.982506,3.53245 -0.149886,-1.33294 -0.468274,-2.41312 -1.171577,-2.91593 z"
           id="path3838"
           inkscape:connector-curvature="0"
           sodipodi:nodetypes="cccc" />
        <path
           style="fill:#4e4a47;fill-opacity:1;stroke:none"
           d="m -42.386917,957.34485 c -0.937226,-0.7697 -1.105222,-2.74007 -1.207589,-3.69894 0.825278,0.70999 1.905277,1.29165 2.834666,2.88927 z"
           id="path3845"
           inkscape:connector-curvature="0"
           sodipodi:nodetypes="cccc" />
        <path
           sodipodi:nodetypes="cccc"
           inkscape:connector-curvature="0"
           id="path3847"
           d="m -31.069916,954.33821 c 0.137566,-0.79622 -0.477759,-2.16382 -0.626287,-2.79758 -0.283067,0.56064 -0.766567,1.46996 -0.716801,2.78343 z"
           style="fill:#4e4a47;fill-opacity:1;stroke:none" />
      </g>
      <path
         sodipodi:nodetypes="ccccc"
         inkscape:connector-curvature="0"
         id="path3825-1"
         d="m 58.253656,960.95064 c -0.762231,-0.14856 -0.750775,-2.30571 -0.311765,-2.50871 1.884282,0.7189 4.336022,0.20242 5.124541,0.31696 0.184758,0.54846 0.14965,0.98698 -0.01865,1.35891 -0.72569,0.46074 -3.008733,0.81374 -4.794126,0.83284 z"
         style="fill:#e5c115;fill-opacity:1;stroke:#000000;stroke-width:0.40000001;stroke-linecap:butt;stroke-linejoin:miter;stroke-miterlimit:4;stroke-opacity:1;stroke-dasharray:none" />
      <path
         style="fill:#e5c115;fill-opacity:1;stroke:#000000;stroke-width:0.30000001;stroke-linecap:butt;stroke-linejoin:miter;stroke-miterlimit:4;stroke-opacity:1;stroke-dasharray:none"
         d="m 69.617918,957.7284 c -0.05096,-0.6505 -0.539451,-0.9585 -0.943828,-1.49119 -0.876788,0.67381 -2.759908,1.49705 -3.304511,1.92229 -0.141045,0.29942 0.25334,1.12062 0.572415,1.13214 1.327337,-0.11151 2.767243,-1.16781 3.675924,-1.56324 z"
         id="path3827-7"
         inkscape:connector-curvature="0"
         sodipodi:nodetypes="ccccc" />
    </g>
  </g>
</svg>
